<svg width="280" height="336" viewBox="0 0 280 336" fill="none" xmlns="http://www.w3.org/2000/svg">
<rect x="0.5" y="56.5" width="279" height="279" fill="white" stroke="#F0F3F5" stroke-miterlimit="0" stroke-linejoin="bevel"/>
<path fill-rule="evenodd" clip-rule="evenodd" d="M40 96H140C195.228 96 240 140.772 240 196C240 251.228 195.228 296 140 296H40V96Z" fill="url(#paint0_linear)"/>
<path fill-rule="evenodd" clip-rule="evenodd" d="M40 196L140 96C165.068 96 187.982 105.224 205.533 120.464C205.53 120.5 130 196 130 196C130 196 205.533 271.5 205.53 271.539C187.979 286.777 165.067 296 140 296L40 196Z" fill="url(#paint1_linear)"/>
<path fill-rule="evenodd" clip-rule="evenodd" d="M205.535 120.466C226.649 138.8 240 165.841 240 196C240 226.161 226.648 253.203 205.531 271.538C205.535 271.5 130 196 130 196L205.535 120.466Z" fill="url(#paint2_linear)"/>
<path d="M1.75781 7.8623V29H9.8291C16.1719 29 19.9072 25.0596 19.9072 18.3506C19.9072 11.6416 16.1719 7.8623 9.8291 7.8623H1.75781ZM6.18164 11.5098H9.30176C13.1982 11.5098 15.3955 13.9414 15.3955 18.3652C15.3955 22.9355 13.2568 25.3379 9.30176 25.3379H6.18164V11.5098ZM29.4434 16.124C31.3477 16.124 32.6514 17.501 32.7393 19.5078H26.0742C26.2207 17.5449 27.5684 16.124 29.4434 16.124ZM32.7979 24.1953C32.4023 25.3965 31.2012 26.1729 29.6338 26.1729C27.4512 26.1729 26.0303 24.6348 26.0303 22.3936V22.1299H36.8555V20.8262C36.8555 16.0508 33.9697 12.96 29.3994 12.96C24.7559 12.96 21.8262 16.2119 21.8262 21.2217C21.8262 26.2461 24.7266 29.3369 29.5605 29.3369C33.4424 29.3369 36.2549 27.2715 36.7236 24.1953H32.7979ZM40.21 29H44.4873V16.5195H47.5049V13.3701H44.3848V12.3301C44.3848 11.2168 45 10.6016 46.4062 10.6016C46.8311 10.6016 47.2559 10.6309 47.5635 10.6895V7.8623C47.0654 7.75977 46.1719 7.67188 45.3809 7.67188C41.6602 7.67188 40.21 9.10742 40.21 12.1836V13.3701H38.0713V16.5195H40.21V29ZM55.0049 26.1582C53.5547 26.1582 52.5879 25.4258 52.5879 24.2539C52.5879 23.1406 53.4961 22.4229 55.0928 22.3057L58.4033 22.1006V23.2432C58.4033 24.9424 56.8652 26.1582 55.0049 26.1582ZM53.5986 29.249C55.5615 29.249 57.5098 28.2676 58.3887 26.5977H58.4766V29H62.6074V18.2041C62.6074 15.04 59.9854 12.96 55.957 12.96C51.7969 12.96 49.2041 15.0547 49.043 18.1016H52.9541C53.1592 16.9443 54.1699 16.1533 55.7666 16.1533C57.3779 16.1533 58.4033 17.0029 58.4033 18.4678V19.5078L54.4482 19.7422C50.5371 19.9766 48.3398 21.6318 48.3398 24.4883C48.3398 27.3154 50.6104 29.249 53.5986 29.249ZM79.8779 13.2969H75.6006V22.291C75.6006 24.3711 74.4141 25.7334 72.5098 25.7334C70.6201 25.7334 69.5801 24.6201 69.5801 22.5254V13.2969H65.3027V23.4189C65.3027 27.0811 67.5586 29.293 70.957 29.293C73.3301 29.293 74.8828 28.1504 75.6592 26.1729H75.7471V29H79.8779V13.2969ZM82.7637 29H87.041V7.8623H82.7637V29ZM91.0693 9.67871V13.2969H88.8574V16.5195H91.0693V24.7666C91.0693 27.8281 92.5049 29.0586 96.1963 29.0586C97.0605 29.0586 97.793 28.9854 98.2324 28.8828V25.7334C97.9688 25.7773 97.5732 25.8066 97.1924 25.8066C95.9326 25.8066 95.3467 25.2354 95.3467 24.0342V16.5195H98.2471V13.2969H95.3467V9.67871H91.0693ZM120.571 25.3379H111.328V7.8623H106.904V29H120.571V25.3379ZM129.8 29.3369C134.546 29.3369 137.578 26.3047 137.578 21.1338C137.578 16.0361 134.502 12.96 129.8 12.96C125.098 12.96 122.021 16.0508 122.021 21.1338C122.021 26.29 125.054 29.3369 129.8 29.3369ZM129.8 26.0703C127.69 26.0703 126.357 24.2979 126.357 21.1484C126.357 18.0283 127.72 16.2266 129.8 16.2266C131.88 16.2266 133.228 18.0283 133.228 21.1484C133.228 24.2979 131.895 26.0703 129.8 26.0703ZM147.041 25.6602C144.917 25.6602 143.599 23.9902 143.599 21.1191C143.599 18.2627 144.932 16.4756 147.041 16.4756C149.18 16.4756 150.542 18.292 150.542 21.1191C150.542 23.9609 149.18 25.6602 147.041 25.6602ZM146.968 34.918C151.67 34.918 154.805 32.5303 154.805 28.7803V13.2969H150.586V16.0361H150.513C149.692 14.2344 147.92 13.0479 145.664 13.0479C141.68 13.0479 139.219 16.1094 139.219 21.0898C139.219 25.9971 141.753 28.9561 145.591 28.9561C147.861 28.9561 149.707 27.8135 150.439 26.1436H150.527V28.8975C150.527 30.7139 149.297 31.9443 147.085 31.9443C145.459 31.9443 144.229 31.1973 143.892 30.1133H139.702C140.039 32.9111 142.837 34.918 146.968 34.918ZM164.81 29.3369C169.556 29.3369 172.588 26.3047 172.588 21.1338C172.588 16.0361 169.512 12.96 164.81 12.96C160.107 12.96 157.031 16.0508 157.031 21.1338C157.031 26.29 160.063 29.3369 164.81 29.3369ZM164.81 26.0703C162.7 26.0703 161.367 24.2979 161.367 21.1484C161.367 18.0283 162.729 16.2266 164.81 16.2266C166.89 16.2266 168.237 18.0283 168.237 21.1484C168.237 24.2979 166.904 26.0703 164.81 26.0703Z" fill="#C6D0EB"/>
<defs>
<linearGradient id="paint0_linear" x1="-61" y1="198" x2="143" y2="400" gradientUnits="userSpaceOnUse">
<stop stop-color="#5334F5"/>
<stop offset="1" stop-color="#7B42F6"/>
</linearGradient>
<linearGradient id="paint1_linear" x1="40" y1="317.093" x2="240.449" y2="317.093" gradientUnits="userSpaceOnUse">
<stop stop-color="#4899F7"/>
<stop offset="1" stop-color="#2457F5"/>
</linearGradient>
<linearGradient id="paint2_linear" x1="88.0889" y1="200.961" x2="227.466" y2="273.53" gradientUnits="userSpaceOnUse">
<stop stop-color="#9DE1E5"/>
<stop offset="1" stop-color="#B8DFB2"/>
</linearGradient>
</defs>
</svg>
