<?xml version="1.0" standalone="no"?>
<!DOCTYPE svg PUBLIC "-//W3C//DTD SVG 20010904//EN"
 "http://www.w3.org/TR/2001/REC-SVG-20010904/DTD/svg10.dtd">
<svg version="1.0" xmlns="http://www.w3.org/2000/svg"
 width="600.000000pt" height="600.000000pt" viewBox="0 0 600.000000 600.000000"
 preserveAspectRatio="xMidYMid meet">
<metadata>
Created by potrace 1.15, written by Peter Selinger 2001-2017
</metadata>
<g transform="translate(0.000000,600.000000) scale(0.100000,-0.100000)"
fill="#000000" stroke="none">
<path d="M1960 3225 l0 -1255 1255 0 1255 0 0 1255 0 1255 -1255 0 -1255 0 0
-1255z m2280 0 l0 -1025 -1025 0 -1025 0 0 1025 0 1025 1025 0 1025 0 0 -1025z"/>
<path d="M2526 3803 c10 -16 98 -151 196 -300 l178 -273 -138 -207 c-77 -115
-173 -261 -215 -325 l-76 -118 222 0 223 0 187 319 c103 175 187 322 187 326
0 4 -77 142 -171 306 l-170 299 -221 0 -220 0 18 -27z"/>
<path d="M3210 3824 c0 -3 86 -136 190 -296 105 -160 189 -297 186 -304 -3 -7
-97 -153 -210 -324 -114 -171 -206 -313 -206 -316 0 -2 100 -3 222 -2 l222 3
187 320 188 319 -32 56 c-18 31 -95 167 -172 303 l-140 246 -217 1 c-120 0
-218 -3 -218 -6z"/>
<path d="M1530 1915 l0 -185 60 0 59 0 3 87 3 86 59 -86 60 -87 58 0 58 0 0
185 0 185 -60 0 -59 0 -3 -87 -3 -86 -58 86 -57 87 -60 0 -60 0 0 -185z"/>
<path d="M1960 1716 l0 -196 65 0 65 0 0 69 0 68 63 5 c35 3 75 13 90 22 64
42 60 172 -6 208 -13 7 -76 14 -149 16 l-128 4 0 -196z"/>
<path d="M1530 1595 l0 -75 180 0 180 0 0 75 0 75 -180 0 -180 0 0 -75z"/>
</g>
</svg>
